<svg width="2014" height="2009" viewBox="0 0 2014 2009" fill="none" xmlns="http://www.w3.org/2000/svg">
  <!-- Define the mask that will create the P-shaped cutout -->
  <defs>
    <mask id="pabbly-mask">
      <!-- White rectangle fills the entire viewBox (white = visible) -->
      <rect x="0" y="0" width="2014" height="2009" fill="white"/>
      
      <!-- Black P shape (black = transparent/cut out) -->
      <path d="M1408.74 1290.25C1302.17 1399.74 1172.83 1454.53 1020.76 1454.53C927.944 1454.53 841.711 1438.87 760.872 1393.37L759.899 1976.4L752.239 1974.34L747.497 1973.13L741.9 1970.09L739.261 1965.33L736.832 1959.96L739.526 1956.59L472.838 1639.59L472.916 890.235C472.916 734.095 526.196 601.485 632.779 492.382C739.339 383.272 868.67 328.729 1020.76 328.729C1172.83 328.729 1302.16 383.466 1408.74 492.98C1515.3 602.478 1568.6 735.367 1568.6 891.625C1568.6 1047.9 1515.3 1180.76 1408.74 1290.25ZM1205.31 701.833C1154.71 649.796 1093.19 623.789 1020.76 623.789C948.302 623.789 886.785 649.796 836.199 701.833C785.597 753.869 760.296 817.12 760.296 891.64C760.296 966.137 785.589 1029.39 836.199 1081.42C886.785 1133.47 948.302 1159.49 1020.76 1159.49C1093.19 1159.49 1154.71 1133.47 1205.31 1081.42C1255.91 1029.39 1281.21 966.137 1281.21 891.64C1281.21 817.12 1255.91 753.861 1205.31 701.833Z" fill="black"/>
    </mask>
  </defs>
  
  <!-- Apply the mask to the green circle -->
  <path d="M2014 1004.5C2014 1559.1 1563.14 2008.68 1007 2008.68C832.627 2008.68 668.607 1964.5 525.593 1886.72C212.457 1716.43 0 1385.22 0 1004.5C0 449.914 450.849 0.324219 1006.99 0.324219C1563.14 0.324219 2014 449.914 2014 1004.5Z" fill="#20B276" mask="url(#pabbly-mask)"/>
</svg>