<svg width="1024" height="1024" viewBox="0 0 1024 1024" fill="none" xmlns="http://www.w3.org/2000/svg">
<rect width="1024" height="1024" fill="#F18D8D"/>
<rect width="1024" height="1024" fill="#01A0D2"/>
<g clip-path="url(#clip0_15_2729)">
<path d="M87.9447 671.536V347.945H222.871C247.099 347.945 267.4 351.369 283.775 358.216C300.15 365.054 312.473 374.645 320.745 386.968C329.016 399.292 333.152 413.564 333.152 429.793C333.152 442.117 330.565 453.1 325.404 462.733C320.242 472.377 313.133 480.355 304.076 486.669C295.02 492.993 284.539 497.412 272.635 499.935V503.097C285.691 503.725 297.784 507.264 308.893 513.683C320.001 520.112 328.932 529.043 335.675 540.466C342.417 551.9 345.789 565.407 345.789 580.998C345.789 598.379 341.37 613.896 332.523 627.529C323.676 641.172 310.882 651.915 294.13 659.767C277.388 667.61 257.056 671.536 233.142 671.536H87.9447ZM166.155 480.983H209.449C217.982 480.983 225.562 479.559 232.2 476.711C238.838 473.863 244.021 469.759 247.769 464.388C251.507 459.016 253.381 452.535 253.381 444.954C253.381 434.107 249.538 425.573 241.843 419.354C234.158 413.145 223.782 410.035 210.716 410.035H166.155V480.983ZM166.155 608.493H214.506C231.467 608.493 243.968 605.279 252.03 598.86C260.092 592.432 264.113 583.479 264.113 572.004C264.113 563.68 262.165 556.497 258.27 550.434C254.375 544.382 248.837 539.692 241.686 536.372C234.524 533.053 225.939 531.399 215.93 531.399H166.166V608.504L166.155 608.493Z" fill="white"/>
<path d="M434.857 347.945V671.536H357.599V347.945H434.857Z" fill="white"/>
<path d="M607.538 566.778V428.84H684.639V671.536H611.014V626.345H608.481C603.109 641.192 593.969 652.972 581.07 661.662C568.161 670.353 552.602 674.698 534.384 674.698C517.842 674.698 503.31 670.908 490.777 663.317C478.244 655.736 468.497 645.119 461.545 631.476C454.593 617.833 451.064 601.844 450.96 583.521V428.84H528.218V568.36C528.322 581.531 531.798 591.908 538.646 599.488C545.493 607.069 554.811 610.859 566.611 610.859C574.296 610.859 581.227 609.153 587.383 605.718C593.55 602.294 598.44 597.29 602.073 590.714C605.706 584.128 607.528 576.15 607.528 566.778H607.538Z" fill="white"/>
<path d="M820.875 676.122C795.485 676.122 773.603 671.097 755.228 661.034C736.842 650.972 722.729 636.596 712.887 617.896C703.035 599.196 698.114 576.946 698.114 551.136C698.114 525.326 703.066 504.123 712.96 485.329C722.865 466.524 736.822 451.886 754.83 441.405C772.838 430.924 794.061 425.688 818.498 425.688C835.773 425.688 851.572 428.379 865.895 433.751C880.218 439.122 892.594 447.069 903.022 457.603C913.45 468.136 921.564 481.119 927.354 496.553C933.144 511.987 936.044 529.65 936.044 549.565V568.841H725.116V523.965H864.147C864.042 515.756 862.095 508.427 858.305 501.998C854.515 495.569 849.321 490.543 842.736 486.91C836.15 483.276 828.601 481.465 820.068 481.465C811.535 481.465 803.683 483.381 796.846 487.224C789.999 491.077 784.575 496.291 780.576 502.867C776.576 509.453 774.461 516.897 774.252 525.221V570.883C774.252 580.788 776.199 589.447 780.094 596.871C783.989 604.295 789.517 610.064 796.689 614.168C803.85 618.273 812.383 620.335 822.288 620.335C829.135 620.335 835.344 619.383 840.935 617.488C846.515 615.592 851.311 612.807 855.31 609.111C859.31 605.425 862.315 600.892 864.314 595.52L935.259 597.573C932.306 613.477 925.857 627.298 915.9 639.046C905.943 650.794 892.908 659.904 876.795 666.374C860.681 672.856 842.034 676.091 820.864 676.091L820.875 676.122Z" fill="white"/>
</g>
<defs>
<clipPath id="clip0_15_2729">
<rect width="848.11" height="328.178" fill="white" transform="translate(87.9447 347.945)"/>
</clipPath>
</defs>
</svg>
